<svg xmlns="http://www.w3.org/2000/svg" viewBox="0 0 586.67 586.67"><g id="Layer_2" data-name="Layer 2"><g id="Layer_1-2" data-name="Layer 1"><rect width="586.67" height="586.67" style="fill:none"/><path d="M161.53,193.75V194c.23,0,.47.08.48-.16l.09.33-.56,0a1.8,1.8,0,0,0,0,.22c0,1.08,0,2.16,0,3.23,0,.19.22.36.3.55a.64.64,0,0,1,.06.36c0,.16.17.38-.2.49,0,0,0,.12,0,.16a.6.6,0,0,1,0,.86.14.14,0,0,0,0,.19.64.64,0,0,1,0,.85.21.21,0,0,0-.06.17c.35.09.15.28.21.43s0,.18.12.2a3.07,3.07,0,0,1,1.77,1.4c0,.06.07.12.12.2h.72v.71l-.44.14.39.15v.8l-.36,0c-.12.2.08.2.28.2h.63l.14,1.3a6,6,0,0,0-.73.41,2.49,2.49,0,0,0-.8,1.55,5.19,5.19,0,0,0-.06,1.18c.19,3.42.37,6.83.6,10.24q.39,5.75.88,11.47c.26,3,.58,5.95.91,8.92.25,2.2.51,4.4.88,6.59.33,2,.81,4,1.23,6,0,.29.13.57.2.88H170a5.25,5.25,0,0,1,.16.59s-.08.13-.14.13a.63.63,0,0,0-.58.35,1.91,1.91,0,0,0-.19,1.59c1.21,3.13,2.38,6.27,3.66,9.4.51,1.27,1.25,2.5,1.88,3.75.07.14.19.16.39.16h2v2.23l.73,0a1.58,1.58,0,0,0-.57,1.68l-.24.09,2.48,3.31,7.21,9.6a1,1,0,0,0,.62.4c.46.14.88.35,1.32.53-.11.32.28.46.56.63a1.57,1.57,0,0,1-.3.05H177.86c.09-.2.24-.39-.06-.58a.14.14,0,0,1,0-.18.74.74,0,0,0,.35-.63,6.81,6.81,0,0,0-1.89-4.24c-2.35-2.82-7.83-5.31-13.35-5.55a23.92,23.92,0,0,0-12.32,2.43c-3.15,1.64-5.18,3.72-5.9,6.31-.16.57-.4,1.18.26,1.72a.11.11,0,0,1,0,.14c-.32.18-.13.39-.06.58H133.72a1.67,1.67,0,0,1-.31-.05c.28-.16.65-.3.56-.65.49-.18,1-.36,1.53-.57a.88.88,0,0,0,.38-.29c2.28-3,4.54-6.05,6.81-9.07l2.6-3.46a.48.48,0,0,0,.12-.45c-.07-.23,0-.48,0-.72a1.3,1.3,0,0,0-.63-1l.76,0v-2.23h1.68c.63,0,.61,0,.84-.38a47,47,0,0,0,3.44-7.8c.68-1.74,1.37-3.49,2-5.24a1.7,1.7,0,0,0-.3-1.56c-.07-.11-.33-.17-.49-.26s-.17-.11-.16-.16a4.84,4.84,0,0,1,.16-.56h1.65c.21-.9.44-1.78.61-2.66.41-2.13.83-4.26,1.17-6.39.26-1.6.4-3.2.58-4.8.23-2.07.46-4.13.66-6.19.16-1.64.28-3.29.41-4.93.2-2.53.4-5.07.58-7.6.17-2.29.34-4.59.48-6.88.1-1.75.18-3.49.22-5.24a2.85,2.85,0,0,0-.7-2,1.22,1.22,0,0,0-.91-.49l.15-1.36.93-.08a.68.68,0,0,0,0-.15l-.38,0v-.81l.39-.14-.44-.14v-.71h.72a3.27,3.27,0,0,1,1.25-1.32,1,1,0,0,1,.18-.1c.46-.12.69-.32.59-.65,0,0,.11-.07.14-.12s.08-.15,0-.19a.59.59,0,0,1,0-.88.12.12,0,0,0,0-.16.59.59,0,0,1,0-.88c.05,0,.06-.14,0-.16-.43-.22-.12-.52-.18-.77,0-.1.16-.21.21-.33a1.68,1.68,0,0,0,.15-.53c0-1,0-2,0-2.94v-.27l-.56,0,.06-.29.49.2v-.36ZM158,259.32c-.91,3.59-1.72,7.17-2.9,10.71h12.55l-2.93-10.71Z" style="fill:none;stroke:#000;stroke-miterlimit:10;stroke-width:0.3063468467607405px"/><path d="M390.07,98.89v.28c.24,0,.48.08.49-.17l.08.33-.55,0a1.46,1.46,0,0,0,0,.22c0,1.07,0,2.15,0,3.23,0,.18.22.36.3.55a.55.55,0,0,1,.06.35c0,.17.17.38-.19.5,0,0,0,.12,0,.16a.6.6,0,0,1,0,.86.15.15,0,0,0,0,.19.63.63,0,0,1,0,.85c-.05,0-.07.17-.05.17.34.09.15.28.2.42s.05.19.12.21a3,3,0,0,1,1.77,1.4l.13.2h.72v.71l-.45.14.4.15v.79l-.36,0c-.12.2.07.2.28.2h.62l.14,1.29a6.34,6.34,0,0,0-.72.42,2.35,2.35,0,0,0-.8,1.55,4.68,4.68,0,0,0-.07,1.18c.19,3.42.37,6.83.61,10.24q.39,5.74.88,11.47c.25,3,.57,5.95.91,8.92.25,2.2.51,4.4.87,6.59.33,2,.81,4,1.23,6,.06.28.13.57.2.87h1.66c.06.22.12.4.16.59s-.09.13-.14.14a.61.61,0,0,0-.58.35,1.9,1.9,0,0,0-.2,1.59c1.21,3.13,2.39,6.27,3.66,9.39.52,1.27,1.26,2.5,1.89,3.75.07.14.19.17.39.17h2v2.23l.73.05a1.57,1.57,0,0,0-.56,1.68l-.24.09,2.48,3.31,7.2,9.6a1.09,1.09,0,0,0,.62.4,14.12,14.12,0,0,1,1.33.52c-.11.33.27.47.56.64a1.54,1.54,0,0,1-.31.05H406.4c.09-.2.25-.4,0-.59-.05,0,0-.14,0-.18a.72.72,0,0,0,.34-.62,6.68,6.68,0,0,0-1.89-4.24c-2.34-2.82-7.83-5.31-13.35-5.56A24,24,0,0,0,379.16,185c-3.16,1.63-5.18,3.72-5.9,6.31-.16.57-.41,1.18.25,1.72,0,0,0,.11,0,.13-.31.19-.13.39-.06.59H362.26a1.57,1.57,0,0,1-.3-.05c.27-.17.64-.3.56-.65.48-.18,1-.36,1.53-.57a1,1,0,0,0,.38-.3l6.81-9.07,2.59-3.46a.46.46,0,0,0,.13-.44,4.45,4.45,0,0,1,0-.73,1.31,1.31,0,0,0-.64-1l.76,0v-2.24h1.69c.62,0,.6,0,.83-.38A46.17,46.17,0,0,0,380,167c.67-1.75,1.36-3.49,2-5.24a1.66,1.66,0,0,0-.29-1.56c-.08-.11-.34-.17-.5-.27s-.16-.1-.16-.15a5.84,5.84,0,0,1,.17-.57h1.65c.2-.9.43-1.77.6-2.65.41-2.13.83-4.26,1.18-6.4.25-1.59.4-3.2.58-4.8.23-2.06.46-4.12.66-6.18.16-1.64.28-3.29.4-4.93q.3-3.81.59-7.6c.16-2.3.33-4.59.47-6.89.1-1.74.19-3.48.23-5.23a2.84,2.84,0,0,0-.71-2,1.17,1.17,0,0,0-.9-.49l.15-1.36c.32,0,.63,0,.92-.09,0,0,0-.08,0-.14l-.38,0v-.81l.38-.14-.43-.14v-.71h.72a3.09,3.09,0,0,1,1.25-1.32,1,1,0,0,1,.17-.1c.46-.12.69-.32.6-.65,0,0,.11-.08.13-.12s.08-.15,0-.19a.59.59,0,0,1,0-.88.14.14,0,0,0,0-.17.59.59,0,0,1,0-.88s.05-.14,0-.15c-.44-.23-.13-.52-.18-.78,0-.09.16-.21.2-.32a1.28,1.28,0,0,0,.15-.53c0-1,0-2,0-2.94v-.28l-.57,0,.06-.3.5.2v-.35Zm-3.54,65.57c-.9,3.59-1.72,7.16-2.9,10.71h12.55l-2.93-10.71Z" style="fill:none;stroke:#000;stroke-miterlimit:10;stroke-width:0.3063468467607405px"/><path d="M307.83,390v.28c.24,0,.48.08.49-.17l.09.33-.56,0a1.52,1.52,0,0,0,0,.21c0,1.08,0,2.16,0,3.24,0,.18.21.36.3.55a.62.62,0,0,1,.06.35c0,.17.16.38-.2.5,0,0,0,.12,0,.16a.61.61,0,0,1,0,.86.14.14,0,0,0,0,.19.63.63,0,0,1,0,.85c-.05,0-.07.17-.05.17.34.09.15.28.21.42s0,.19.12.21a3,3,0,0,1,1.76,1.4l.13.2h.72v.71l-.44.14.39.15v.79l-.36,0c-.12.2.08.2.28.2h.62l.14,1.29a6.34,6.34,0,0,0-.72.42,2.4,2.4,0,0,0-.8,1.55,4.68,4.68,0,0,0-.06,1.18c.19,3.41.37,6.83.6,10.24q.39,5.74.88,11.47c.26,3,.57,5.95.91,8.92.25,2.2.51,4.4.87,6.59.34,2,.82,4,1.23,6q.09.42.21.87h1.65c.06.22.12.4.16.59s-.08.13-.14.14a.64.64,0,0,0-.58.34,1.93,1.93,0,0,0-.2,1.6c1.22,3.13,2.39,6.27,3.66,9.39.52,1.27,1.26,2.5,1.89,3.75.07.14.19.17.39.17h2v2.23l.73,0a1.58,1.58,0,0,0-.56,1.67l-.24.1,2.48,3.31,7.2,9.6a1.08,1.08,0,0,0,.63.4c.46.14.88.34,1.32.52-.11.33.28.47.56.64a1.57,1.57,0,0,1-.3.05H324.17c.08-.2.24-.4-.06-.59,0,0,0-.14,0-.18a.73.73,0,0,0,.35-.62,6.78,6.78,0,0,0-1.89-4.24c-2.35-2.82-7.84-5.31-13.35-5.56a24,24,0,0,0-12.32,2.44c-3.15,1.63-5.18,3.72-5.9,6.31-.16.57-.41,1.18.25,1.72,0,0,0,.11,0,.13-.32.19-.14.39-.07.59H280a1.57,1.57,0,0,1-.3-.05c.27-.17.64-.3.56-.65.49-.18,1-.36,1.53-.57a.89.89,0,0,0,.38-.3c2.28-3,4.54-6,6.81-9.07.86-1.15,1.73-2.3,2.59-3.46a.45.45,0,0,0,.13-.45c-.07-.23,0-.48,0-.72a1.28,1.28,0,0,0-.64-1l.76,0v-2.24h1.69c.62,0,.6,0,.83-.38a46.17,46.17,0,0,0,3.45-7.79c.67-1.75,1.37-3.49,2-5.24a1.66,1.66,0,0,0-.29-1.56c-.08-.11-.33-.17-.49-.27s-.17-.1-.16-.15a5.62,5.62,0,0,1,.16-.57h1.65c.21-.9.43-1.77.6-2.65.41-2.13.84-4.26,1.18-6.4.26-1.59.4-3.2.58-4.8.23-2.06.46-4.12.66-6.18.16-1.64.28-3.29.41-4.93q.3-3.81.58-7.6c.17-2.3.33-4.59.47-6.89.11-1.74.19-3.48.23-5.23a2.83,2.83,0,0,0-.7-2,1.19,1.19,0,0,0-.91-.49l.15-1.36c.33,0,.63-.05.93-.09,0,0,0-.08,0-.14l-.38,0v-.81l.39-.14-.44-.14v-.71h.72a3.15,3.15,0,0,1,1.25-1.32,1.51,1.51,0,0,1,.17-.1c.47-.12.7-.32.6-.66,0,0,.11-.07.13-.11s.08-.15,0-.19a.6.6,0,0,1,0-.88.15.15,0,0,0,0-.17.59.59,0,0,1,0-.88s.06-.14,0-.15c-.43-.23-.12-.52-.18-.78,0-.1.16-.21.21-.32a1.44,1.44,0,0,0,.14-.53c0-1,0-2,0-2.94v-.28l-.57,0,.06-.3.5.2V390Zm-3.54,65.56c-.9,3.6-1.72,7.17-2.9,10.71H314L311,455.51Z" style="fill:none;stroke:#000;stroke-miterlimit:10;stroke-width:0.3063468467607405px"/></g></g></svg>