<svg xmlns="http://www.w3.org/2000/svg" viewBox="0 0 410.67 185.57"><g id="Layer_2" data-name="Layer 2"><g id="Layer_1-2" data-name="Layer 1"><path d="M0,113.36v-.78a7.08,7.08,0,0,0,3.71-3.64,12.91,12.91,0,0,0,1.23-5.59V28.73a12.94,12.94,0,0,0-1.23-5.59A7.12,7.12,0,0,0,0,19.5v-.78H23.14v.78a7.37,7.37,0,0,0-3.77,3.64,12.31,12.31,0,0,0-1.3,5.59V60.58H66.56V28.73a12.94,12.94,0,0,0-1.23-5.59,7.12,7.12,0,0,0-3.71-3.64v-.78H84.76v.78A7.37,7.37,0,0,0,81,23.14a12.31,12.31,0,0,0-1.3,5.59v74.62a12.28,12.28,0,0,0,1.3,5.59,7.33,7.33,0,0,0,3.77,3.64v.78H61.62v-.78a7.08,7.08,0,0,0,3.71-3.64,12.91,12.91,0,0,0,1.23-5.59V62.79H18.07v40.56a12.28,12.28,0,0,0,1.3,5.59,7.33,7.33,0,0,0,3.77,3.64v.78Z"/><path d="M169.78,95.81l-3.25,17.55h-62v-.78a7,7,0,0,0,3.7-3.64,12.77,12.77,0,0,0,1.24-5.59V28.73a12.8,12.8,0,0,0-1.24-5.59,7.07,7.07,0,0,0-3.7-3.64v-.78h57.33L165,36.27h-.52a26,26,0,0,0-3.19-5.78,24.39,24.39,0,0,0-4.94-5.07,23.48,23.48,0,0,0-6.95-3.64A29.2,29.2,0,0,0,140,20.41H122.59v40.3h20.54A7,7,0,0,0,149,57.46a21.23,21.23,0,0,0,3.38-7.8h.78v24h-.78a32.11,32.11,0,0,0-1.3-4,15.26,15.26,0,0,0-1.95-3.51,9.56,9.56,0,0,0-2.67-2.47,6.2,6.2,0,0,0-3.31-.91H122.59V111h21.19a32.41,32.41,0,0,0,9.94-1.36,26.1,26.1,0,0,0,7.22-3.51,22.32,22.32,0,0,0,5-4.88,27.14,27.14,0,0,0,3.19-5.46ZM155.74,0V2.21H116.35V0Z"/><path d="M208.13,18.72v.78a7.12,7.12,0,0,0-3.71,3.64,12.94,12.94,0,0,0-1.23,5.59v82.94h20.28a28.56,28.56,0,0,0,9.29-1.36,23.74,23.74,0,0,0,6.89-3.64,22.76,22.76,0,0,0,4.88-5.14,31.06,31.06,0,0,0,3.12-5.72h.65l-3.25,17.55H185.12v-.78a7.07,7.07,0,0,0,3.7-3.64,12.77,12.77,0,0,0,1.24-5.59V28.73a12.8,12.8,0,0,0-1.24-5.59,7.1,7.1,0,0,0-3.7-3.64v-.78Z"/><path d="M253,112.32a14.46,14.46,0,0,0,3.51-2.21,11.75,11.75,0,0,0,2.14-2.53,18,18,0,0,0,1.43-2.8c.39-1,.8-1.9,1.24-2.86l33.8-83.2h1.69l35.1,83.33q1.29,3,2.6,5.66a12.32,12.32,0,0,0,4.94,4.87v.78H313.3v-.78a13,13,0,0,0,4.74-4.09c1.09-1.61,1-3.92-.19-7l-7-17.16H271.18l-6.24,15.47c-1.22,3-1.22,5.57,0,7.61a13,13,0,0,0,5.33,4.87v1H253Zm56.94-30.16-19-46.93L272.09,82.16Z"/><path d="M378.43,114.27a70.77,70.77,0,0,1-17.62-2.08A38.86,38.86,0,0,1,347.1,106l3-13.13h.52a51.79,51.79,0,0,0,5.13,7.67,34.76,34.76,0,0,0,6.44,6.24,31.72,31.72,0,0,0,7.6,4.16,24.08,24.08,0,0,0,8.65,1.56q9.87,0,15.4-4.68t5.53-12.87a16.74,16.74,0,0,0-3.58-11,35.9,35.9,0,0,0-9-7.74,107.67,107.67,0,0,0-11.7-6.24,83.54,83.54,0,0,1-11.7-6.5,34.41,34.41,0,0,1-9-8.65,20.8,20.8,0,0,1-3.57-12.41A22.19,22.19,0,0,1,353,32.18a22.69,22.69,0,0,1,6.37-7.68,29.43,29.43,0,0,1,9.82-4.87,43.74,43.74,0,0,1,12.48-1.69,48,48,0,0,1,15.47,2.34,52.62,52.62,0,0,1,12.35,6l-3.12,13.39h-.65a53,53,0,0,0-4.1-7.21,34.68,34.68,0,0,0-5.46-6.37,27.12,27.12,0,0,0-6.76-4.55,19,19,0,0,0-8.25-1.76q-9.11,0-14.43,4.74a15.68,15.68,0,0,0-5.33,12.29,14.15,14.15,0,0,0,3.64,10,37.37,37.37,0,0,0,9.1,7.08,130.36,130.36,0,0,0,11.89,6,73.73,73.73,0,0,1,11.9,6.63,35.56,35.56,0,0,1,9.1,9q3.63,5.27,3.64,13.32a24.19,24.19,0,0,1-2.28,10.6,22.87,22.87,0,0,1-6.43,8.06,29.43,29.43,0,0,1-10.14,5.07A47.52,47.52,0,0,1,378.43,114.27Z"/><path d="M124.05,160.91h3.13v16.23c0,6.44-3.17,8.43-7.34,8.43a10.21,10.21,0,0,1-3.35-.58l.47-2.56a7.23,7.23,0,0,0,2.62.47c2.81,0,4.47-1.26,4.47-6Z"/><path d="M152.59,173.79h-9.43v8.75h10.51v2.63H140V160.91h13.1v2.63h-10v7.66h9.43Z"/><path d="M168,185.17l-6.16-24.26h3.32l2.87,12.27c.72,3,1.37,6,1.8,8.39H170c.39-2.41,1.15-5.29,2-8.42l3.24-12.24h3.27l2.95,12.31c.69,2.88,1.33,5.76,1.69,8.31h.08c.5-2.66,1.18-5.36,1.94-8.38l3.2-12.24h3.21l-6.88,24.26h-3.27l-3.06-12.63a74.28,74.28,0,0,1-1.59-7.92h-.07a75.83,75.83,0,0,1-1.87,7.92l-3.46,12.63Z"/><path d="M214.73,173.79H205.3v8.75h10.51v2.63H202.17V160.91h13.1v2.63h-10v7.66h9.43Z"/><path d="M227.51,160.91h3.13v21.63H241v2.63h-13.5Z"/><path d="M252.13,161.23a33,33,0,0,1,6-.5c3.35,0,5.51.61,7,2a6,6,0,0,1,1.91,4.61,6.37,6.37,0,0,1-4.57,6.19v.1c1.87.65,3,2.38,3.56,4.9a40.11,40.11,0,0,0,1.87,6.66H264.7a30.6,30.6,0,0,1-1.62-5.8c-.72-3.34-2-4.6-4.86-4.71h-3v10.51h-3.13Zm3.13,11.05h3.21c3.35,0,5.47-1.83,5.47-4.6,0-3.14-2.27-4.5-5.58-4.54a12.63,12.63,0,0,0-3.1.29Z"/><path d="M282.88,185.17v-10.3l-7.67-14h3.56l3.42,6.69c.94,1.84,1.66,3.32,2.41,5h.08c.68-1.59,1.51-3.17,2.44-5l3.5-6.69h3.56L286,174.84v10.33Z"/></g></g></svg>